<?xml version="1.0" encoding="UTF-8"?>
<svg id="Layer_1" data-name="Layer 1" xmlns="http://www.w3.org/2000/svg" viewBox="0 0 242 130">
  <defs>
    <style>
      .cls-1 {
        fill: #fff;
      }

      .cls-2 {
        fill: #fc2e05;
      }
    </style>
  </defs>
  <g>
    <path class="cls-1" d="M62,66.99c-1.45-1.21-2.17-2.91-2.17-5.12v-14.48c0-2.2.72-3.91,2.17-5.12,1.45-1.21,3.54-1.81,6.27-1.81s4.82.6,6.27,1.81c1.45,1.21,2.17,2.91,2.17,5.12v14.48c0,2.2-.73,3.91-2.17,5.12-1.45,1.21-3.54,1.81-6.27,1.81s-4.82-.6-6.27-1.81ZM71.15,62.15v-15.03c0-1.81-.96-2.72-2.88-2.72s-2.88.91-2.88,2.72v15.03c0,1.81.96,2.72,2.88,2.72s2.88-.91,2.88-2.72Z"/>
    <path class="cls-1" d="M79.29,40.86h5.61l3.64,21.37h.1l3.64-21.37h5.11l-5.36,27.55h-7.38l-5.36-27.55Z"/>
    <path class="cls-1" d="M100.47,40.86h15.16v3.94h-9.6v7.28h7.63v3.94h-7.63v8.46h9.6v3.94h-15.16v-27.55Z"/>
    <path class="cls-1" d="M119.22,40.86h8.24c2.86,0,4.95.52,6.27,1.55,1.31,1.04,1.97,2.63,1.97,4.78v1.69c0,2.86-1.21,4.67-3.64,5.43v.08c1.35.31,2.3.96,2.86,1.93.56.97.83,2.27.83,3.9v4.84c0,.79.03,1.42.1,1.91.07.49.24.96.51,1.44h-5.66c-.2-.45-.34-.87-.4-1.26-.07-.39-.1-1.1-.1-2.12v-5.04c0-1.26-.26-2.14-.78-2.64-.52-.5-1.42-.75-2.7-.75h-1.92v11.81h-5.56v-27.55ZM126.81,52.67c1.11,0,1.95-.22,2.5-.67.56-.45.83-1.19.83-2.24v-2.12c0-1-.23-1.72-.68-2.16-.46-.45-1.17-.67-2.15-.67h-2.53v7.87h2.02Z"/>
    <path class="cls-1" d="M140,40.86h8.39c2.86,0,4.95.52,6.27,1.55,1.31,1.04,1.97,2.63,1.97,4.78v1.1c0,1.42-.3,2.57-.88,3.46-.59.89-1.49,1.53-2.7,1.93v.08c2.76.73,4.14,2.65,4.14,5.75v2.36c0,2.12-.72,3.75-2.15,4.86-1.43,1.12-3.53,1.67-6.29,1.67h-8.74v-27.55ZM147.73,52.08c1.11,0,1.95-.22,2.5-.67.56-.45.83-1.19.83-2.24v-1.53c0-1-.23-1.72-.68-2.16-.46-.45-1.17-.67-2.15-.67h-2.68v7.28h2.17ZM148.74,64.47c.98,0,1.7-.2,2.17-.61.47-.41.71-1.11.71-2.11v-2.4c0-1.26-.28-2.13-.83-2.62-.56-.49-1.47-.73-2.75-.73h-2.48v8.46h3.18Z"/>
    <path class="cls-1" d="M162.59,66.99c-1.45-1.21-2.17-2.91-2.17-5.12v-14.48c0-2.2.72-3.91,2.17-5.12,1.45-1.21,3.54-1.81,6.27-1.81s4.82.6,6.27,1.81c1.45,1.21,2.17,2.91,2.17,5.12v14.48c0,2.2-.72,3.91-2.17,5.12-1.45,1.21-3.54,1.81-6.27,1.81s-4.82-.6-6.27-1.81ZM171.74,62.15v-15.03c0-1.81-.96-2.72-2.88-2.72s-2.88.91-2.88,2.72v15.03c0,1.81.96,2.72,2.88,2.72s2.88-.91,2.88-2.72Z"/>
    <path class="cls-1" d="M183.22,66.99c-1.45-1.21-2.17-2.91-2.17-5.12v-14.48c0-2.2.72-3.91,2.17-5.12,1.45-1.21,3.54-1.81,6.27-1.81s4.82.6,6.27,1.81c1.45,1.21,2.17,2.91,2.17,5.12v14.48c0,2.2-.72,3.91-2.17,5.12-1.45,1.21-3.54,1.81-6.27,1.81s-4.82-.6-6.27-1.81ZM192.37,62.15v-15.03c0-1.81-.96-2.72-2.88-2.72s-2.88.91-2.88,2.72v15.03c0,1.81.96,2.72,2.88,2.72s2.88-.91,2.88-2.72Z"/>
    <path class="cls-1" d="M203.18,67.01c-1.38-1.19-2.07-2.91-2.07-5.14v-1.57h5.26v1.89c0,1.78.96,2.68,2.88,2.68.94,0,1.66-.22,2.15-.65.49-.43.73-1.13.73-2.11,0-1.15-.34-2.17-1.01-3.05-.67-.88-1.92-1.93-3.74-3.17-2.29-1.57-3.89-3-4.8-4.27-.91-1.27-1.36-2.71-1.36-4.31,0-2.18.71-3.86,2.12-5.06,1.42-1.19,3.47-1.79,6.17-1.79s4.68.6,6.04,1.79c1.36,1.19,2.05,2.91,2.05,5.14v1.14h-5.26v-1.42c0-.94-.24-1.63-.71-2.07-.47-.43-1.16-.65-2.07-.65-1.85,0-2.78.88-2.78,2.64,0,1,.35,1.93,1.04,2.79s1.95,1.92,3.77,3.15c2.33,1.57,3.92,3,4.8,4.29.88,1.29,1.31,2.79,1.31,4.53,0,2.26-.72,3.99-2.15,5.19-1.43,1.21-3.51,1.81-6.24,1.81s-4.73-.6-6.12-1.79Z"/>
    <path class="cls-1" d="M225.63,44.8h-5.81v-3.94h17.19v3.94h-5.81v23.61h-5.56v-23.61Z"/>
  </g>
  <g>
    <path class="cls-1" d="M63.88,75.01h3.14l5.5,13.94h-3.37l-1.01-2.8h-5.36l-1.02,2.8h-3.38l5.51-13.94ZM63.83,83.39h3.26l-1.62-4.57h-.03l-1.62,4.57Z"/>
    <path class="cls-1" d="M83.68,81.16h7.11v.89c0,1-.17,1.93-.5,2.8s-.81,1.63-1.43,2.28c-.62.66-1.36,1.17-2.22,1.53-.86.37-1.81.55-2.85.55s-2.05-.18-2.93-.55-1.63-.89-2.27-1.55c-.63-.66-1.12-1.43-1.46-2.31-.34-.88-.51-1.82-.51-2.83s.17-1.94.51-2.81c.34-.88.82-1.64,1.46-2.3.63-.66,1.39-1.17,2.27-1.54.88-.37,1.85-.55,2.93-.55.88,0,1.66.1,2.33.29.67.19,1.25.44,1.74.76.49.32.9.66,1.24,1.04s.62.74.84,1.1l-3,1.42c-.29-.44-.68-.83-1.18-1.16s-1.15-.5-1.97-.5c-.57,0-1.09.11-1.57.34s-.89.53-1.23.92-.61.85-.8,1.36c-.19.52-.28,1.06-.28,1.64s.09,1.13.28,1.65c.19.51.45.97.8,1.36.34.39.76.7,1.23.92s1,.33,1.57.33c.5,0,.95-.06,1.36-.19s.76-.31,1.06-.55c.3-.24.54-.52.71-.85.17-.33.28-.69.31-1.08h-3.55v-2.41Z"/>
    <path class="cls-1" d="M96.04,75.01h8.9v2.77h-5.76v2.84h5.7v2.68h-5.7v2.88h5.76v2.77h-8.9v-13.94Z"/>
    <path class="cls-1" d="M113.7,77.9l.23.04v11h-3.16v-13.94h4.31l5.65,10.98-.23.04v-11.03h3.16v13.94h-4.33l-5.63-11.05Z"/>
    <path class="cls-1" d="M136.87,86.08c.65,0,1.24-.09,1.77-.29.53-.19.93-.38,1.19-.56l1.35,2.68c-.33.28-.9.57-1.7.86-.8.29-1.75.43-2.85.43-1.03,0-1.99-.18-2.89-.54-.9-.36-1.7-.86-2.38-1.52s-1.23-1.42-1.62-2.29c-.39-.88-.59-1.83-.59-2.86s.19-1.98.58-2.87c.39-.88.92-1.65,1.61-2.31.69-.66,1.48-1.16,2.39-1.53s1.87-.54,2.9-.54c1.1,0,2.05.14,2.85.43.8.29,1.36.57,1.7.86l-1.35,2.68c-.26-.19-.66-.38-1.19-.56s-1.12-.28-1.77-.28c-.72,0-1.34.11-1.88.33-.53.22-.98.53-1.34.91-.36.39-.63.82-.8,1.31-.18.49-.26,1-.26,1.53s.09,1.06.26,1.55c.18.49.44.93.8,1.31.36.39.81.69,1.34.91.54.22,1.16.33,1.88.33Z"/>
    <path class="cls-1" d="M150.1,83.93l-4.81-8.92h3.83l2.54,5.31,2.56-5.31h3.81l-4.78,8.92v5.02h-3.16v-5.02Z"/>
  </g>
  <path class="cls-2" d="M4.78,37.39h26.83l18.38,20.42c2.43,3.89.97,6.17,0,7.7s-20.42,22.92-20.42,22.92H2.95l24.18-26.71L4.78,37.39Z"/>
</svg>

